# AST/ASF file generated using VICON BodyLanguage
# -----------------------------------------------
:version 1.10
:name VICON
:units
  mass 1.0
  length 0.45
  angle deg
:documentation
   .ast/.asf automatically generated from VICON data using
   VICON BodyBuilder and BodyLanguage model FoxedUp or BRILLIANT.MOD
:root
   order TX TY TZ RX RY RZ
   axis XYZ
   position 0 0 0  
   orientation 0 0 0 
:bonedata
  begin
     id 1 
     name lhipjoint
     direction 0.589753 -0.68606 0.426044 
     length 2.54082 
     axis 0 0 0  XYZ
  end
  begin
     id 2 
     name lfemur
     direction 0.34202 -0.939693 0  
     length 7.04539  
     axis 0 0 20  XYZ
    dof rx ry rz
    limits (-160.0 20.0)
           (-70.0 70.0)
           (-60.0 70.0)
  end
  begin
     id 3 
     name ltibia
     direction 0.34202 -0.939693 0   
     length 7.83772   
     axis 0 0 20   XYZ
    dof rx
    limits (-10.0 170.0)
  end
  begin
     id 4 
     name lfoot
     direction 0.0596604 -0.163915 0.984669   
     length 2.39542   
     axis -90 7.62852e-016 20   XYZ
    dof rx rz
    limits (-45.0 90.0)
           (-70.0 20.0)
  end
  begin
     id 5 
     name ltoes
     direction 1.53514e-011 -4.21954e-011 1   
     length 1.2047   
     axis -90 7.62852e-016 20   XYZ
    dof rx
    limits (-90.0 20.0)
  end
  begin
     id 6 
     name rhipjoint
     direction -0.580585 -0.69168 0.429534   
     length 2.52018  
     axis 0 0 0  XYZ 
  end
  begin
     id 7 
     name rfemur
     direction -0.34202 -0.939693 0   
     length 7.0101   
     axis 0 0 -20   XYZ
    dof rx ry rz
    limits (-160.0 20.0)
           (-70.0 70.0)
           (-70.0 60.0)
  end
  begin
     id 8 
     name rtibia
     direction -0.34202 -0.939693 0   
     length 7.70628   
     axis 0 0 -20   XYZ
    dof rx
    limits (-10.0 170.0)
 end
 begin
     id 9 
     name rfoot
     direction -0.0696237 -0.19129 0.979061   
     length 2.52466  
     axis -90 -7.62852e-016 -20   XYZ
    dof rx rz
    limits (-45.0 90.0)
           (-20.0 70.0)
  end
  begin
     id 10 
     name rtoes
     direction -1.53519e-011 -4.21793e-011 1   
     length 1.266   
     axis -90 -7.62852e-016 -20   XYZ
    dof rx
    limits (-90.0 20.0)
  end
  begin
     id 11 
     name lowerback
     direction 0.00381965 0.995707 -0.0924856   
     length 2.20825   
     axis 0 0 0   XYZ
    dof rx ry rz
    limits (-20.0 45.0)
           (-30.0 30.0)
           (-30.0 30.0)
  end
  begin
     id 12 
     name upperback
     direction -0.0139043 0.999634 -0.0231929   
     length 2.21517   
     axis 0 0 0   XYZ
    dof rx ry rz
    limits (-20.0 45.0)
           (-30.0 30.0)
           (-30.0 30.0)
  end
  begin
     id 13 
     name thorax
     direction -0.0143933 0.999691 0.0202892   
     length 2.22911   
     axis 0 0 0   XYZ
    dof rx ry rz
    limits (-20.0 45.0)
           (-30.0 30.0)
           (-30.0 30.0)
  end
  begin
     id 14 
     name lowerneck
     direction -0.0251153 0.981819 0.188153   
     length 1.61782   
     axis 0 0 0   XYZ
    dof rx ry rz
    limits (-20.0 45.0)
           (-30.0 30.0)
           (-30.0 30.0)
  end
  begin
     id 15 
     name upperneck
     direction 0.0563891 0.969357 -0.239095   
     length 1.64526   
     axis 0 0 0   XYZ
    dof rx ry rz
    limits (-20.0 45.0)
           (-30.0 30.0)
           (-30.0 30.0)
  end
  begin
     id 16
     name head
     direction 0.0208328 0.99459 -0.101773  
     length 1.67436  
     axis 0 0 0   XYZ
    dof rx ry rz
    limits (-20.0 45.0)
           (-30.0 30.0)
           (-30.0 30.0)
  end
  begin
     id 17 
     name lclavicle
     direction 0.917689 0.397224 0.00772059  
     length 3.31102  
     axis 0 0 0   XYZ
    dof ry rz
    limits (-20.0 10.0)
           (0.0 20.0)
  end
  begin
     id 18 
     name lhumerus
     direction 1 -4.4896e-011 2.32308e-027   
     length 5.25537   
     axis 180 -30 -90   XYZ
    dof rx ry rz
    limits (-60.0 90.0)
           (-90.0 90.0)
           (-90.0 90.0)
  end
  begin
     id 19
     name lradius
     direction 1 -4.49005e-011 -2.04271e-027   
     length 3.38855   
     axis 180 -30 -90   XYZ
    dof rx
    limits (-10.0 170.0)
  end
  begin
     id 20
     name lwrist
     direction 1 -4.48892e-011 2.56952e-028   
     length 1.69428   
     axis -5.12785e-016 90 90   XYZ
    dof ry
    limits (-180.0 0.0)
 end
  begin
     id 21 
     name lhand
     direction 1 -4.48966e-011 5.13905e-028   
     length 0.614516   
     axis -3.27915e-016 90 90   XYZ
    dof rx rz
    limits (-90.0 90.0)
           (-45.0 45.0)
  end
  begin
     id 22 
     name lfingers
     direction 1 -4.48979e-011 1.02781e-027   
     length 0.495439   
     axis -6.5583e-016 90 90   XYZ
    dof rx
    limits (0.0 90.0)
  end
  begin
     id 23
     name lthumb
     direction 0.707107 -6.35001e-011 0.707107   
     length 0.711354   
     axis -90 45 2.85299e-015   XYZ
    dof rx rz
    limits (-45.0 45.0)
           (-45.0 45.0)
  end
  begin
     id 24 
     name rclavicle
     direction -0.938556 0.342765 -0.0403177   
     length 3.27019  
     axis 0 0 0   XYZ 
    dof ry rz
    limits (-10.0 20.0)
           (-20.0 0.0)
  end
  begin
     id 25 
     name rhumerus
     direction -1 -4.48966e-011 2.52291e-027  
     length 5.38183   
     axis 180 30 90   XYZ
    dof rx ry rz
    limits (-90.0 60.0)
           (-90.0 90.0)
           (-90.0 90.0)
  end
  begin
     id 26 
     name rradius
     direction -1 -4.4896e-011 1.5797e-027   
     length 3.16988   
     axis 180 30 90   XYZ
    dof rx
    limits (-10.0 170.0)
  end
  begin
     id 27 
     name rwrist
     direction -1 -4.48947e-011 2.56952e-028   
     length 1.58494   
     axis -5.12785e-016 -90 -90   XYZ
    dof ry
    limits (-180.0 0.0)
  end
  begin
     id 28
     name rhand
     direction -1 -4.49098e-011 5.13905e-028   
     length 0.637679   
     axis -3.27915e-016 -90 -90   XYZ
    dof rx rz
    limits (-90.0 90.0)
           (-45.0 45.0)
  end
  begin
     id 29
     name rfingers
     direction -1 -4.49026e-011 1.02781e-027   
     length 0.514113   
     axis -6.5583e-016 -90 -90   XYZ
    dof rx
    limits (0.0 90.0)
  end
  begin
     id 30
     name rthumb
     direction -0.707107 -6.3491e-011 0.707107   
     length 0.738167   
     axis -90 -45 -2.85299e-015   XYZ
    dof rx rz
    limits (-45.0 45.0)
           (-45.0 45.0)
  end
:hierarchy
  begin
    root lhipjoint rhipjoint lowerback
    lhipjoint lfemur
    lfemur ltibia
    ltibia lfoot
    lfoot ltoes
    rhipjoint rfemur
    rfemur rtibia
    rtibia rfoot
    rfoot rtoes
    lowerback upperback
    upperback thorax
    thorax lowerneck lclavicle rclavicle
    lowerneck upperneck
    upperneck head
    lclavicle lhumerus
    lhumerus lradius
    lradius lwrist
    lwrist lhand lthumb
    lhand lfingers
    rclavicle rhumerus
    rhumerus rradius
    rradius rwrist
    rwrist rhand rthumb
    rhand rfingers
  end

#!OML:ASF H:\Swim\Project 1\Capture day 1\Session 1\swimmer.ASF
:FULLY-SPECIFIED
:DEGREES
3995
root 4.43598 11.9322 8.59863 95.9434 -1.50767 -2.66548
lowerback 2.65317 -0.152306 -0.967933
upperback -5.28236 -0.330183 -0.95483
thorax -6.98948 -0.142391 -0.425636
lowerneck -12.9998 -5.43176 -11.9677
upperneck -7.58162 -5.49324 17.2211
head 0.80939 -2.39253 7.0143
rclavicle -6.75868e-015 -1.69712e-014
rhumerus 32.5756 59.4966 7.90778
rradius 116.537
rwrist -30.7653
rhand -32.482 6.38321
rfingers 7.12502
rthumb -5.71412 -23.5197
lclavicle -6.75868e-015 -1.69712e-014
lhumerus 10.7601 -58.198 20.5986
lradius 117.086
lwrist 8.9308
lhand -31.4546 16.003
lfingers 7.12502
lthumb -4.72208 45.9304
rfemur -32.1784 5.35934 22.8178
rtibia 46.0218
rfoot -0.630657 -7.19867
rtoes -8.62061
lfemur -33.6229 -3.1043 -22.7489
ltibia 43.8098
lfoot 6.02137 3.73628
ltoes 2.72315
3996
root 4.43409 11.9353 8.58497 95.6757 -1.51216 -2.63831
lowerback 2.94391 -0.0959517 -1.07191
upperback -5.31167 -0.267539 -0.989998
thorax -7.18972 -0.105659 -0.409612
lowerneck -13.2593 -5.49066 -11.6541
upperneck -7.53467 -5.59964 17.0598
head 0.861141 -2.44344 6.89612
rclavicle -3.18055e-015 3.8266e-015
rhumerus 33.3078 60.1004 8.2992
rradius 117.508
rwrist -30.3088
rhand -33.6855 6.96287
rfingers 7.12502
rthumb -6.87601 -22.9055
lclavicle -3.18055e-015 3.8266e-015
lhumerus 11.4446 -59.1038 20.3575
lradius 117.999
lwrist 8.63252
lhand -32.3702 16.1251
lfingers 7.12502
lthumb -5.60618 46.0309
rfemur -31.9814 5.14863 22.8676
rtibia 46.3689
rfoot -0.673268 -7.06095
rtoes -9.13347
lfemur -33.4093 -2.85768 -22.8355
ltibia 44.0185
lfoot 6.03468 3.70569
ltoes 2.72076
3997
root 4.4324 11.9389 8.57067 95.3925 -1.51774 -2.61234
lowerback 3.24423 -0.0398923 -1.16833
upperback -5.32916 -0.205738 -1.02651
thorax -7.38346 -0.0697576 -0.399798
lowerneck -13.5441 -5.55333 -11.329
upperneck -7.48377 -5.71298 16.8605
head 0.915834 -2.49743 6.76304
rclavicle -5.56597e-015 -5.7896e-015
rhumerus 34.0802 60.6315 8.70142
rradius 118.456
rwrist -29.8884
rhand -34.9423 7.66058
rfingers 7.12502
rthumb -8.08905 -22.1646
lclavicle -5.56597e-015 -5.7896e-015
lhumerus 12.2759 -59.9696 19.999
lradius 118.867
lwrist 8.3034
lhand -33.3708 16.186
lfingers 7.12502
lthumb -6.57221 46.064
rfemur -31.778 4.91056 22.9234
rtibia 46.7398
rfoot -0.71898 -6.96921
rtoes -9.76964
lfemur -33.1703 -2.58927 -22.9292
ltibia 44.2442
lfoot 6.06392 3.64087
ltoes 2.73954
3998
root 4.43093 11.943 8.55569 95.0931 -1.525 -2.5873
lowerback 3.55522 0.0202644 -1.26448
upperback -5.33605 -0.138852 -1.05782
thorax -7.57254 -0.0311368 -0.385856
lowerneck -13.8382 -5.62476 -11.0311
upperneck -7.44663 -5.834 16.6568
head 0.968765 -2.55487 6.63295
rclavicle -1.59028e-015 9.44227e-016
rhumerus 34.8536 61.0866 9.0764
rradius 119.369
rwrist -29.4887
rhand -36.1996 8.44178
rfingers 7.12502
rthumb -9.30243 -21.333
lclavicle -1.59028e-015 9.44227e-016
lhumerus 13.2688 -60.7944 19.5342
lradius 119.691
lwrist 8.05051
lhand -34.4777 16.0879
lfingers 7.12502
lthumb -7.64062 45.9299
rfemur -31.5669 4.66072 22.9804
rtibia 47.1341
rfoot -0.749045 -6.91903
rtoes -10.444
lfemur -32.9072 -2.32611 -23.0267
ltibia 44.4933
lfoot 6.10297 3.571
ltoes 2.74711
3999
root 4.42963 11.9476 8.54016 94.7766 -1.52695 -2.56215
lowerback 3.88141 0.0844712 -1.35535
upperback -5.33512 -0.0664509 -1.08019
thorax -7.76258 0.0102508 -0.366805
lowerneck -14.117 -5.70306 -10.7827
upperneck -7.44834 -5.95589 16.4736
head 1.00993 -2.61319 6.51879
rclavicle 3.18055e-015 -5.04416e-015
rhumerus 35.6052 61.4681 9.39267
rradius 120.255
rwrist -29.1165
rhand -37.425 9.22762
rfingers 7.12502
rthumb -10.4846 -20.4909
lclavicle 3.18055e-015 -5.04416e-015
lhumerus 14.4151 -61.5622 18.9761
lradius 120.508
lwrist 7.86164
lhand -35.5579 15.9685
lfingers 7.12502
lthumb -8.68319 45.7699
rfemur -31.3469 4.4035 23.0444
rtibia 47.5518
rfoot -0.753668 -6.8874
rtoes -11.0321
lfemur -32.621 -2.07668 -23.1188
ltibia 44.7717
lfoot 6.14873 3.50418
ltoes 2.7196
4000
root 4.42854 11.9528 8.52401 94.4437 -1.52274 -2.53659
lowerback 4.22587 0.147945 -1.4347
upperback -5.32976 0.00525292 -1.09506
thorax -7.95902 0.05089 -0.347097
lowerneck -14.3314 -5.78301 -10.6112
upperneck -7.53754 -6.06572 16.3492
head 1.01902 -2.66802 6.43976
rclavicle -2.78299e-015 7.77745e-015
rhumerus 36.3328 61.7677 9.62097
rradius 121.147
rwrist -28.8524
rhand -38.5477 9.87804
rfingers 7.12502
rthumb -11.5675 -19.7827
lclavicle -2.78299e-015 7.77745e-015
lhumerus 15.6751 -62.2649 18.3428
lradius 121.295
lwrist 7.61973
lhand -36.6287 15.8147
lfingers 7.12502
lthumb -9.71641 45.5706
rfemur -31.1204 4.14121 23.1142
rtibia 47.9947
rfoot -0.723457 -6.85085
rtoes -11.4547
lfemur -32.3147 -1.84219 -23.2044
ltibia 45.0862
lfoot 6.20911 3.43698
ltoes 2.70766
4001
root 4.42754 11.9586 8.50727 94.0949 -1.5186 -2.51168
lowerback 4.58965 0.207757 -1.50922
upperback -5.32491 0.0714716 -1.10537
thorax -8.16786 0.0887144 -0.325575
lowerneck -14.4818 -5.86093 -10.5032
upperneck -7.69228 -6.16205 16.2753
head 1.00175 -2.71831 6.39071
rclavicle 1.19271e-015 -3.926e-015
rhumerus 37.0625 62.0138 9.76882
rradius 122.01
rwrist -28.6194
rhand -39.6228 10.4792
rfingers 7.12502
rthumb -12.6042 -19.1205
lclavicle 1.19271e-015 -3.926e-015
lhumerus 17.0008 -62.8919 17.6779
lradius 122.045
lwrist 7.22506
lhand -37.6493 15.7114
lfingers 7.12502
lthumb -10.701 45.4189
rfemur -30.8898 3.87989 23.1808
rtibia 48.4659
rfoot -0.661692 -6.79476
rtoes -11.6582
lfemur -31.9899 -1.62309 -23.2892
ltibia 45.4417
lfoot 6.27449 3.36849
ltoes 2.64975
4002
root 4.4267 11.965 8.48982 93.7328 -1.50857 -2.48671
lowerback 4.97092 0.256737 -1.56485
upperback -5.32558 0.123196 -1.11728
thorax -8.39335 0.118213 -0.315503
lowerneck -14.5704 -5.92035 -10.3999
upperneck -7.88928 -6.23325 16.1991
head 0.959142 -2.75943 6.34545
rclavicle 1.98785e-016 -2.73329e-015
rhumerus 37.8129 62.202 9.82992
rradius 122.845
rwrist -28.4071
rhand -40.6533 11.0909
rfingers 7.12502
rthumb -13.5975 -18.445
lclavicle 1.98785e-016 -2.73329e-015
lhumerus 18.345 -63.4293 16.9995
lradius 122.756
lwrist 6.62515
lhand -38.5879 15.7017
lfingers 7.12502
lthumb -11.6063 45.3603
rfemur -30.6583 3.6219 23.2513
rtibia 48.9682
rfoot -0.571143 -6.71841
rtoes -11.6966
lfemur -31.6525 -1.39768 -23.3684
ltibia 45.8446
lfoot 6.34269 3.26611
ltoes 2.523
4003
root 4.42604 11.9721 8.47202 93.354 -1.49477 -2.46241
lowerback 5.37116 0.294624 -1.60383
upperback -5.33354 0.159828 -1.1329
thorax -8.63832 0.139145 -0.317626
lowerneck -14.5975 -5.96714 -10.3182
upperneck -8.12256 -6.285 16.158
head 0.896601 -2.79325 6.31818
rclavicle 1.59028e-015 7.20594e-015
rhumerus 38.5906 62.334 9.8228
rradius 123.66
rwrist -28.2153
rhand -41.6729 11.7951
rfingers 7.12502
rthumb -14.58 -17.6725
lclavicle 1.59028e-015 7.20594e-015
lhumerus 19.6882 -63.8886 16.3234
lradius 123.415
lwrist 5.85827
lhand -39.5474 15.7777
lfingers 7.12502
lthumb -12.5315 45.3819
rfemur -30.4245 3.35776 23.3216
rtibia 49.506
rfoot -0.469628 -6.61884
rtoes -11.6815
lfemur -31.2987 -1.15993 -23.4443
ltibia 46.2997
lfoot 6.41415 3.12385
ltoes 2.31875
4004
root 4.4255 11.9797 8.45392 92.9618 -1.48957 -2.4396
lowerback 5.78645 0.32298 -1.64616
upperback -5.35653 0.181466 -1.15441
thorax -8.9091 0.152784 -0.322942
lowerneck -14.6034 -5.99373 -10.2026
upperneck -8.34466 -6.31712 16.0952
head 0.829172 -2.81878 6.28015
rclavicle -4.96962e-015 6.28657e-015
rhumerus 39.3707 62.4046 9.72428
rradius 124.47
rwrist -28.0266
rhand -42.6533 12.5013
rfingers 7.12502
rthumb -15.5244 -16.8955
lclavicle -4.96962e-015 6.28657e-015
lhumerus 21.0271 -64.2911 15.654
lradius 124.035
lwrist 5.06453
lhand -40.5981 15.8481
lfingers 7.12502
lthumb -13.5443 45.3876
rfemur -30.194 3.08492 23.3774
rtibia 50.0816
rfoot -0.364852 -6.49856
rtoes -11.6274
lfemur -30.933 -0.908157 -23.5287
ltibia 46.8117
lfoot 6.48825 2.9433
ltoes 2.04649
